<svg xmlns="http://www.w3.org/2000/svg" width="300" height="176"><path fill="#73a64a" stroke="#73a64a" stroke-width="1.51" d="M169,88L270,99L209,10Z"/><path fill="#7eab4e" stroke="#7eab4e" stroke-width="1.51" d="M270,99L312,-26L209,10Z"/><path fill="#669c40" stroke="#669c40" stroke-width="1.51" d="M259,197L304,144L270,99Z"/><path fill="#72a347" stroke="#72a347" stroke-width="1.51" d="M357,96L312,-26L270,99Z"/><path fill="#84b053" stroke="#84b053" stroke-width="1.51" d="M209,10L118,-35L169,88Z"/><path fill="#90b558" stroke="#90b558" stroke-width="1.51" d="M312,-26L221,-65L209,10Z"/><path fill="#6aa044" stroke="#6aa044" stroke-width="1.51" d="M169,88L183,195L270,99Z"/><path fill="#679d41" stroke="#679d41" stroke-width="1.51" d="M183,195L259,197L270,99Z"/><path fill="#679d41" stroke="#679d41" stroke-width="1.51" d="M304,144L357,96L270,99Z"/><path fill="#63993e" stroke="#63993e" stroke-width="1.51" d="M433,157L357,96L304,144Z"/><path fill="#95b95d" stroke="#95b95d" stroke-width="1.51" d="M177,-74L118,-35L209,10Z"/><path fill="#6ca145" stroke="#6ca145" stroke-width="1.51" d="M169,88L76,207L183,195Z"/><path fill="#97ba5d" stroke="#97ba5d" stroke-width="1.51" d="M221,-65L177,-74L209,10Z"/><path fill="#649a3e" stroke="#649a3e" stroke-width="1.51" d="M433,157L392,66L357,96Z"/><path fill="#74a447" stroke="#74a447" stroke-width="1.51" d="M357,96L392,66L312,-26Z"/><path fill="#82af53" stroke="#82af53" stroke-width="1.51" d="M118,-35L53,114L169,88Z"/><path fill="#a2c062" stroke="#a2c062" stroke-width="1.51" d="M221,-65L309,-109L177,-74Z"/><path fill="#9bbb5d" stroke="#9bbb5d" stroke-width="1.51" d="M312,-26L309,-109L221,-65Z"/><path fill="#9aba5b" stroke="#9aba5b" stroke-width="1.51" d="M425,-83L309,-109L312,-26Z"/><path fill="#7da94c" stroke="#7da94c" stroke-width="1.51" d="M392,66L411,6L312,-26Z"/><path fill="#78a84c" stroke="#78a84c" stroke-width="1.51" d="M53,114L76,207L169,88Z"/><path fill="#63993e" stroke="#63993e" stroke-width="1.51" d="M183,195L273,282L259,197Z"/><path fill="#96bb5d" stroke="#96bb5d" stroke-width="1.51" d="M118,-35L28,-8L53,114Z"/><path fill="#a4c365" stroke="#a4c365" stroke-width="1.51" d="M177,-74L71,-70L118,-35Z"/><path fill="#b7ce6f" stroke="#b7ce6f" stroke-width="1.51" d="M-5,-124L71,-70L177,-74Z"/><path fill="#a9c567" stroke="#a9c567" stroke-width="1.51" d="M71,-70L28,-8L118,-35Z"/><path fill="#6da044" stroke="#6da044" stroke-width="1.51" d="M76,207L122,250L183,195Z"/><path fill="#62983d" stroke="#62983d" stroke-width="1.51" d="M259,197L350,242L304,144Z"/><path fill="#689c40" stroke="#689c40" stroke-width="1.51" d="M392,66L433,157L411,6Z"/><path fill="#60963a" stroke="#60963a" stroke-width="1.51" d="M273,282L350,242L259,197Z"/><path fill="#649a3e" stroke="#649a3e" stroke-width="1.51" d="M122,250L273,282L183,195Z"/><path fill="#60963b" stroke="#60963b" stroke-width="1.51" d="M350,242L433,157L304,144Z"/><path fill="#77a447" stroke="#77a447" stroke-width="1.51" d="M433,157L425,-83L411,6Z"/><path fill="#8cb154" stroke="#8cb154" stroke-width="1.51" d="M411,6L425,-83L312,-26Z"/><path fill="#abc668" stroke="#abc668" stroke-width="1.51" d="M-38,-11L-36,72L28,-8Z"/><path fill="#97bb5d" stroke="#97bb5d" stroke-width="1.51" d="M28,-8L-36,72L53,114Z"/><path fill="#85af52" stroke="#85af52" stroke-width="1.51" d="M53,114L-21,182L76,207Z"/><path fill="#90b659" stroke="#90b659" stroke-width="1.51" d="M-36,72L-21,182L53,114Z"/><path fill="#73a346" stroke="#73a346" stroke-width="1.51" d="M76,207L77,297L122,250Z"/><path fill="#bdd172" stroke="#bdd172" stroke-width="1.51" d="M-5,-124L-38,-11L28,-8Z"/><path fill="#80aa4d" stroke="#80aa4d" stroke-width="1.51" d="M-51,264L77,297L76,207Z"/><path fill="#63993e" stroke="#63993e" stroke-width="1.51" d="M122,250L77,297L273,282Z"/><path fill="#bbd071" stroke="#bbd071" stroke-width="1.51" d="M71,-70L-5,-124L28,-8Z"/><path fill="#abc668" stroke="#abc668" stroke-width="1.51" d="M309,-109L-5,-124L177,-74Z"/><path fill="#61973c" stroke="#61973c" stroke-width="1.51" d="M433,157L451,271L425,-83Z"/><path fill="#5c9236" stroke="#5c9236" stroke-width="1.51" d="M350,242L451,271L433,157Z"/><path fill="#5c9236" stroke="#5c9236" stroke-width="1.51" d="M273,282L451,271L350,242Z"/><path fill="#5e9439" stroke="#5e9439" stroke-width="1.51" d="M77,297L451,271L273,282Z"/><path fill="#9ebe61" stroke="#9ebe61" stroke-width="1.51" d="M-129,83L-21,182L-36,72Z"/><path fill="#98b85a" stroke="#98b85a" stroke-width="1.51" d="M-124,245L-51,264L-21,182Z"/><path fill="#8ab053" stroke="#8ab053" stroke-width="1.51" d="M-21,182L-51,264L76,207Z"/><path fill="#b3cb6d" stroke="#b3cb6d" stroke-width="1.51" d="M-38,-11L-123,20L-36,72Z"/><path fill="#ccd97a" stroke="#ccd97a" stroke-width="1.51" d="M-92,-121L-123,20L-38,-11Z"/><path fill="#b0ca6c" stroke="#b0ca6c" stroke-width="1.51" d="M-123,20L-129,83L-36,72Z"/><path fill="#d3dd7e" stroke="#d3dd7e" stroke-width="1.51" d="M-5,-124L-92,-121L-38,-11Z"/><path fill="#a3c062" stroke="#a3c062" stroke-width="1.51" d="M-129,83L-137,211L-21,182Z"/><path fill="#9fbd5f" stroke="#9fbd5f" stroke-width="1.51" d="M-137,211L-124,245L-21,182Z"/></svg>