<svg xmlns="http://www.w3.org/2000/svg" width="300" height="176"><path fill="#ffb96e" stroke="#ffb96e" stroke-width="1.51" d="M145,59L142,1L48,12Z"/><path fill="#fb6" stroke="#fb6" stroke-width="1.51" d="M48,12L70,106L145,59Z"/><path fill="#ffb970" stroke="#ffb970" stroke-width="1.51" d="M48,12L-16,104L70,106Z"/><path fill="#ffb86a" stroke="#ffb86a" stroke-width="1.51" d="M-16,104L31,152L70,106Z"/><path fill="#ffbf3c" stroke="#ffbf3c" stroke-width="1.51" d="M137,208L245,112L145,59Z"/><path fill="#feb38b" stroke="#feb38b" stroke-width="1.51" d="M48,12L-32,-12L-16,104Z"/><path fill="#fdada6" stroke="#fdada6" stroke-width="1.51" d="M-10,-98L-32,-12L48,12Z"/><path fill="#ffb672" stroke="#ffb672" stroke-width="1.51" d="M-16,104L-10,144L31,152Z"/><path fill="#ffb489" stroke="#ffb489" stroke-width="1.51" d="M142,1L135,-121L48,12Z"/><path fill="#ffba60" stroke="#ffba60" stroke-width="1.51" d="M145,59L270,8L142,1Z"/><path fill="#feb28b" stroke="#feb28b" stroke-width="1.51" d="M142,1L267,-107L135,-121Z"/><path fill="#ffbe4b" stroke="#ffbe4b" stroke-width="1.51" d="M137,208L145,59L70,106Z"/><path fill="#fbabaf" stroke="#fbabaf" stroke-width="1.51" d="M35,-125L-10,-98L48,12Z"/><path fill="#fdaea4" stroke="#fdaea4" stroke-width="1.51" d="M135,-121L35,-125L48,12Z"/><path fill="#ffbc4d" stroke="#ffbc4d" stroke-width="1.51" d="M245,112L270,8L145,59Z"/><path fill="#feb957" stroke="#feb957" stroke-width="1.51" d="M31,152L137,208L70,106Z"/><path fill="#feb84f" stroke="#feb84f" stroke-width="1.51" d="M126,241L137,208L31,152Z"/><path fill="#febb38" stroke="#febb38" stroke-width="1.51" d="M137,208L263,203L245,112Z"/><path fill="#fdb555" stroke="#fdb555" stroke-width="1.51" d="M77,285L126,241L31,152Z"/><path fill="#ffb478" stroke="#ffb478" stroke-width="1.51" d="M270,8L267,-107L142,1Z"/><path fill="#feb067" stroke="#feb067" stroke-width="1.51" d="M-47,287L77,285L31,152Z"/><path fill="#ffb281" stroke="#ffb281" stroke-width="1.51" d="M-16,104L-122,172L-10,144Z"/><path fill="#feb196" stroke="#feb196" stroke-width="1.51" d="M-32,-12L-131,62L-16,104Z"/><path fill="#fbabb1" stroke="#fbabb1" stroke-width="1.51" d="M-139,-6L-131,62L-32,-12Z"/><path fill="#feb753" stroke="#feb753" stroke-width="1.51" d="M347,99L341,19L270,8Z"/><path fill="#fdb735" stroke="#fdb735" stroke-width="1.51" d="M273,269L263,203L137,208Z"/><path fill="#f9a7c1" stroke="#f9a7c1" stroke-width="1.51" d="M-130,-59L-139,-6L-32,-12Z"/><path fill="#feb173" stroke="#feb173" stroke-width="1.51" d="M270,8L341,19L267,-107Z"/><path fill="#febb43" stroke="#febb43" stroke-width="1.51" d="M347,99L270,8L245,112Z"/><path fill="#f9a8c1" stroke="#f9a8c1" stroke-width="1.51" d="M-10,-98L-130,-59L-32,-12Z"/><path fill="#f8a5c9" stroke="#f8a5c9" stroke-width="1.51" d="M35,-125L-130,-59L-10,-98Z"/><path fill="#fdb936" stroke="#fdb936" stroke-width="1.51" d="M126,241L273,269L137,208Z"/><path fill="#feb172" stroke="#feb172" stroke-width="1.51" d="M-47,287L31,152L-10,144Z"/><path fill="#feba37" stroke="#feba37" stroke-width="1.51" d="M263,203L347,99L245,112Z"/><path fill="#feb18e" stroke="#feb18e" stroke-width="1.51" d="M-131,62L-122,172L-16,104Z"/><path fill="#fdab97" stroke="#fdab97" stroke-width="1.51" d="M-137,290L-122,172L-131,62Z"/><path fill="#feae81" stroke="#feae81" stroke-width="1.51" d="M-122,172L-47,287L-10,144Z"/><path fill="#fdb734" stroke="#fdb734" stroke-width="1.51" d="M263,203L355,194L347,99Z"/><path fill="#fdb835" stroke="#fdb835" stroke-width="1.51" d="M77,285L273,269L126,241Z"/><path fill="#fead83" stroke="#fead83" stroke-width="1.51" d="M341,19L355,-116L267,-107Z"/><path fill="#fdac99" stroke="#fdac99" stroke-width="1.51" d="M267,-107L355,-116L135,-121Z"/><path fill="#fdae9e" stroke="#fdae9e" stroke-width="1.51" d="M135,-121L355,-116L35,-125Z"/><path fill="#fdac7d" stroke="#fdac7d" stroke-width="1.51" d="M391,-72L355,-116L341,19Z"/><path fill="#fdb550" stroke="#fdb550" stroke-width="1.51" d="M347,99L403,11L341,19Z"/><path fill="#fcb331" stroke="#fcb331" stroke-width="1.51" d="M328,279L355,194L263,203Z"/><path fill="#fdb448" stroke="#fdb448" stroke-width="1.51" d="M451,60L403,11L347,99Z"/><path fill="#feaf6b" stroke="#feaf6b" stroke-width="1.51" d="M403,11L391,-72L341,19Z"/><path fill="#fcb533" stroke="#fcb533" stroke-width="1.51" d="M355,194L404,170L347,99Z"/><path fill="#fbb22f" stroke="#fbb22f" stroke-width="1.51" d="M424,247L404,170L355,194Z"/><path fill="#fcb331" stroke="#fcb331" stroke-width="1.51" d="M273,269L328,279L263,203Z"/><path fill="#fcb431" stroke="#fcb431" stroke-width="1.51" d="M77,285L328,279L273,269Z"/><path fill="#fda88b" stroke="#fda88b" stroke-width="1.51" d="M-122,172L-137,290L-47,287Z"/><path fill="#feaa76" stroke="#feaa76" stroke-width="1.51" d="M-47,287L-137,290L77,285Z"/><path fill="#fdae9c" stroke="#fdae9c" stroke-width="1.51" d="M-139,-6L-137,290L-131,62Z"/><path fill="#fcb734" stroke="#fcb734" stroke-width="1.51" d="M404,170L451,60L347,99Z"/><path fill="#fdaf63" stroke="#fdaf63" stroke-width="1.51" d="M403,11L451,60L391,-72Z"/><path fill="#fcb330" stroke="#fcb330" stroke-width="1.51" d="M404,170L424,247L451,60Z"/><path fill="#fbb02e" stroke="#fbb02e" stroke-width="1.51" d="M328,279L424,247L355,194Z"/></svg>