<svg xmlns="http://www.w3.org/2000/svg" width="300" height="176"><path fill="#6f4fac" stroke="#6f4fac" stroke-width="1.51" d="M124,71L84,19L54,116Z"/><path fill="#8968aa" stroke="#8968aa" stroke-width="1.51" d="M-37,7L-32,113L54,116Z"/><path fill="#6142a7" stroke="#6142a7" stroke-width="1.51" d="M83,211L130,169L54,116Z"/><path fill="#5e41aa" stroke="#5e41aa" stroke-width="1.51" d="M54,116L130,169L124,71Z"/><path fill="#8a69aa" stroke="#8a69aa" stroke-width="1.51" d="M84,19L-37,7L54,116Z"/><path fill="#6f50aa" stroke="#6f50aa" stroke-width="1.51" d="M211,4L178,-10L124,71Z"/><path fill="#7555ab" stroke="#7555ab" stroke-width="1.51" d="M124,71L178,-10L84,19Z"/><path fill="#ac8ea8" stroke="#ac8ea8" stroke-width="1.51" d="M84,19L-20,-86L-37,7Z"/><path fill="#8361a9" stroke="#8361a9" stroke-width="1.51" d="M-32,113L-37,148L54,116Z"/><path fill="#9271a9" stroke="#9271a9" stroke-width="1.51" d="M-89,58L-37,148L-32,113Z"/><path fill="#7553a7" stroke="#7553a7" stroke-width="1.51" d="M-37,148L83,211L54,116Z"/><path fill="#593eab" stroke="#593eab" stroke-width="1.51" d="M226,114L211,4L124,71Z"/><path fill="#4933a9" stroke="#4933a9" stroke-width="1.51" d="M130,169L226,114L124,71Z"/><path fill="#4630a6" stroke="#4630a6" stroke-width="1.51" d="M216,182L226,114L130,169Z"/><path fill="#9e7ea9" stroke="#9e7ea9" stroke-width="1.51" d="M-37,7L-89,58L-32,113Z"/><path fill="#8563a9" stroke="#8563a9" stroke-width="1.51" d="M211,4L174,-75L178,-10Z"/><path fill="#8664aa" stroke="#8664aa" stroke-width="1.51" d="M178,-10L174,-75L84,19Z"/><path fill="#b295a7" stroke="#b295a7" stroke-width="1.51" d="M-37,7L-103,11L-89,58Z"/><path fill="#b395a7" stroke="#b395a7" stroke-width="1.51" d="M74,-122L-20,-86L84,19Z"/><path fill="#452fa5" stroke="#452fa5" stroke-width="1.51" d="M144,237L216,182L130,169Z"/><path fill="#5337a5" stroke="#5337a5" stroke-width="1.51" d="M83,211L144,237L130,169Z"/><path fill="#bea3a6" stroke="#bea3a6" stroke-width="1.51" d="M-20,-86L-103,11L-37,7Z"/><path fill="#9f7fa9" stroke="#9f7fa9" stroke-width="1.51" d="M174,-75L74,-122L84,19Z"/><path fill="#593ba3" stroke="#593ba3" stroke-width="1.51" d="M83,211L71,288L144,237Z"/><path fill="#6a49a1" stroke="#6a49a1" stroke-width="1.51" d="M-6,296L71,288L83,211Z"/><path fill="#a383a8" stroke="#a383a8" stroke-width="1.51" d="M174,-75L224,-94L74,-122Z"/><path fill="#916fa8" stroke="#916fa8" stroke-width="1.51" d="M211,4L224,-94L174,-75Z"/><path fill="#815fa7" stroke="#815fa7" stroke-width="1.51" d="M317,21L224,-94L211,4Z"/><path fill="#8f6ca1" stroke="#8f6ca1" stroke-width="1.51" d="M-147,258L-6,296L-37,148Z"/><path fill="#7856a3" stroke="#7856a3" stroke-width="1.51" d="M-37,148L-6,296L83,211Z"/><path fill="#9c7ba7" stroke="#9c7ba7" stroke-width="1.51" d="M-89,58L-143,178L-37,148Z"/><path fill="#a687a9" stroke="#a687a9" stroke-width="1.51" d="M-103,11L-143,178L-89,58Z"/><path fill="#5237a6" stroke="#5237a6" stroke-width="1.51" d="M346,70L317,21L226,114Z"/><path fill="#6042a8" stroke="#6042a8" stroke-width="1.51" d="M226,114L317,21L211,4Z"/><path fill="#432da4" stroke="#432da4" stroke-width="1.51" d="M320,187L346,70L226,114Z"/><path fill="#422ba1" stroke="#422ba1" stroke-width="1.51" d="M144,237L255,253L216,182Z"/><path fill="#412ba1" stroke="#412ba1" stroke-width="1.51" d="M71,288L255,253L144,237Z"/><path fill="#bda2a6" stroke="#bda2a6" stroke-width="1.51" d="M-103,11L-149,-82L-143,178Z"/><path fill="#d1bca2" stroke="#d1bca2" stroke-width="1.51" d="M-20,-86L-149,-82L-103,11Z"/><path fill="#d2bea2" stroke="#d2bea2" stroke-width="1.51" d="M74,-122L-149,-82L-20,-86Z"/><path fill="#432da3" stroke="#432da3" stroke-width="1.51" d="M320,187L226,114L216,182Z"/><path fill="#402aa0" stroke="#402aa0" stroke-width="1.51" d="M255,253L320,187L216,182Z"/><path fill="#9e7da3" stroke="#9e7da3" stroke-width="1.51" d="M-143,178L-147,258L-37,148Z"/><path fill="#ab8da6" stroke="#ab8da6" stroke-width="1.51" d="M-149,-82L-147,258L-143,178Z"/><path fill="#3d279e" stroke="#3d279e" stroke-width="1.51" d="M255,253L319,243L320,187Z"/><path fill="#412aa0" stroke="#412aa0" stroke-width="1.51" d="M412,193L407,67L346,70Z"/><path fill="#3a249a" stroke="#3a249a" stroke-width="1.51" d="M442,269L319,243L255,253Z"/><path fill="#8d6ba4" stroke="#8d6ba4" stroke-width="1.51" d="M317,21L332,-89L224,-94Z"/><path fill="#a383a5" stroke="#a383a5" stroke-width="1.51" d="M224,-94L416,-101L74,-122Z"/><path fill="#815ea3" stroke="#815ea3" stroke-width="1.51" d="M391,-23L332,-89L317,21Z"/><path fill="#6040a2" stroke="#6040a2" stroke-width="1.51" d="M407,67L391,-23L346,70Z"/><path fill="#6948a3" stroke="#6948a3" stroke-width="1.51" d="M346,70L391,-23L317,21Z"/><path fill="#3f29a0" stroke="#3f29a0" stroke-width="1.51" d="M412,193L346,70L320,187Z"/><path fill="#3d269c" stroke="#3d269c" stroke-width="1.51" d="M319,243L412,193L320,187Z"/><path fill="#7a57a1" stroke="#7a57a1" stroke-width="1.51" d="M407,67L416,-101L391,-23Z"/><path fill="#906ea0" stroke="#906ea0" stroke-width="1.51" d="M391,-23L416,-101L332,-89Z"/><path fill="#9c7ba2" stroke="#9c7ba2" stroke-width="1.51" d="M332,-89L416,-101L224,-94Z"/><path fill="#472ea1" stroke="#472ea1" stroke-width="1.51" d="M442,269L416,-101L407,67Z"/><path fill="#3b259c" stroke="#3b259c" stroke-width="1.51" d="M412,193L442,269L407,67Z"/><path fill="#392399" stroke="#392399" stroke-width="1.51" d="M319,243L442,269L412,193Z"/><path fill="#3d269d" stroke="#3d269d" stroke-width="1.51" d="M71,288L442,269L255,253Z"/><path fill="#3f299f" stroke="#3f299f" stroke-width="1.51" d="M-6,296L442,269L71,288Z"/></svg>