<svg xmlns="http://www.w3.org/2000/svg" width="300" height="176"><path fill="#fa6c4b" stroke="#fa6c4b" stroke-width="1.51" d="M161,67L164,6L84,73Z"/><path fill="#f47464" stroke="#f47464" stroke-width="1.51" d="M164,6L68,-33L84,73Z"/><path fill="#fb6842" stroke="#fb6842" stroke-width="1.51" d="M161,67L225,94L164,6Z"/><path fill="#fc6231" stroke="#fc6231" stroke-width="1.51" d="M180,148L225,94L161,67Z"/><path fill="#fe6536" stroke="#fe6536" stroke-width="1.51" d="M84,73L180,148L161,67Z"/><path fill="#fa6740" stroke="#fa6740" stroke-width="1.51" d="M84,73L57,150L180,148Z"/><path fill="#f56f58" stroke="#f56f58" stroke-width="1.51" d="M-34,114L57,150L84,73Z"/><path fill="#ed7c7c" stroke="#ed7c7c" stroke-width="1.51" d="M68,-33L-15,-30L84,73Z"/><path fill="#e38393" stroke="#e38393" stroke-width="1.51" d="M133,-120L35,-70L68,-33Z"/><path fill="#e28495" stroke="#e28495" stroke-width="1.51" d="M35,-70L-15,-30L68,-33Z"/><path fill="#ed7b7b" stroke="#ed7b7b" stroke-width="1.51" d="M164,6L133,-120L68,-33Z"/><path fill="#f07265" stroke="#f07265" stroke-width="1.51" d="M260,-24L235,-63L164,6Z"/><path fill="#f66b4f" stroke="#f66b4f" stroke-width="1.51" d="M225,94L260,-24L164,6Z"/><path fill="#ed7975" stroke="#ed7975" stroke-width="1.51" d="M235,-63L133,-120L164,6Z"/><path fill="#f07871" stroke="#f07871" stroke-width="1.51" d="M-15,-30L-34,114L84,73Z"/><path fill="#f8633b" stroke="#f8633b" stroke-width="1.51" d="M323,72L298,17L225,94Z"/><path fill="#f5694b" stroke="#f5694b" stroke-width="1.51" d="M225,94L298,17L260,-24Z"/><path fill="#e87676" stroke="#e87676" stroke-width="1.51" d="M260,-24L323,-117L235,-63Z"/><path fill="#db88a5" stroke="#db88a5" stroke-width="1.51" d="M133,-120L-2,-107L35,-70Z"/><path fill="#da89a7" stroke="#da89a7" stroke-width="1.51" d="M35,-70L-2,-107L-15,-30Z"/><path fill="#f07264" stroke="#f07264" stroke-width="1.51" d="M-34,114L-40,162L57,150Z"/><path fill="#f75c2b" stroke="#f75c2b" stroke-width="1.51" d="M209,241L272,177L180,148Z"/><path fill="#f95e2d" stroke="#f95e2d" stroke-width="1.51" d="M297,159L323,72L225,94Z"/><path fill="#f95e2d" stroke="#f95e2d" stroke-width="1.51" d="M180,148L272,177L225,94Z"/><path fill="#f86237" stroke="#f86237" stroke-width="1.51" d="M136,265L180,148L57,150Z"/><path fill="#f06c58" stroke="#f06c58" stroke-width="1.51" d="M-40,162L60,241L57,150Z"/><path fill="#f85d2c" stroke="#f85d2c" stroke-width="1.51" d="M272,177L297,159L225,94Z"/><path fill="#f75c2b" stroke="#f75c2b" stroke-width="1.51" d="M136,265L209,241L180,148Z"/><path fill="#f35928" stroke="#f35928" stroke-width="1.51" d="M272,177L300,250L297,159Z"/><path fill="#d68cb0" stroke="#d68cb0" stroke-width="1.51" d="M-90,-64L-107,-5L-15,-30Z"/><path fill="#e48290" stroke="#e48290" stroke-width="1.51" d="M-15,-30L-107,-5L-34,114Z"/><path fill="#ea7876" stroke="#ea7876" stroke-width="1.51" d="M-34,114L-126,167L-40,162Z"/><path fill="#f36443" stroke="#f36443" stroke-width="1.51" d="M60,241L136,265L57,150Z"/><path fill="#d48db4" stroke="#d48db4" stroke-width="1.51" d="M-2,-107L-90,-64L-15,-30Z"/><path fill="#e7808a" stroke="#e7808a" stroke-width="1.51" d="M-107,-5L-120,83L-34,114Z"/><path fill="#ec7269" stroke="#ec7269" stroke-width="1.51" d="M298,17L323,-117L260,-24Z"/><path fill="#e57d85" stroke="#e57d85" stroke-width="1.51" d="M235,-63L323,-117L133,-120Z"/><path fill="#eb6f64" stroke="#eb6f64" stroke-width="1.51" d="M415,-4L323,-117L298,17Z"/><path fill="#e87c80" stroke="#e87c80" stroke-width="1.51" d="M-120,83L-126,167L-34,114Z"/><path fill="#ec6c5d" stroke="#ec6c5d" stroke-width="1.51" d="M-40,162L-22,297L60,241Z"/><path fill="#f45827" stroke="#f45827" stroke-width="1.51" d="M136,265L300,250L209,241Z"/><path fill="#f35827" stroke="#f35827" stroke-width="1.51" d="M209,241L300,250L272,177Z"/><path fill="#f35f3a" stroke="#f35f3a" stroke-width="1.51" d="M427,103L415,-4L323,72Z"/><path fill="#f65b2a" stroke="#f65b2a" stroke-width="1.51" d="M427,103L323,72L297,159Z"/><path fill="#f26648" stroke="#f26648" stroke-width="1.51" d="M323,72L415,-4L298,17Z"/><path fill="#e6716e" stroke="#e6716e" stroke-width="1.51" d="M-107,294L-22,297L-40,162Z"/><path fill="#ef6449" stroke="#ef6449" stroke-width="1.51" d="M60,241L-22,297L136,265Z"/><path fill="#f05424" stroke="#f05424" stroke-width="1.51" d="M136,265L404,300L300,250Z"/><path fill="#f35726" stroke="#f35726" stroke-width="1.51" d="M422,189L427,103L297,159Z"/><path fill="#f15626" stroke="#f15626" stroke-width="1.51" d="M300,250L422,189L297,159Z"/><path fill="#e5777b" stroke="#e5777b" stroke-width="1.51" d="M-126,167L-107,294L-40,162Z"/><path fill="#e5716f" stroke="#e5716f" stroke-width="1.51" d="M415,-4L449,-74L323,-117Z"/><path fill="#ec664e" stroke="#ec664e" stroke-width="1.51" d="M427,103L449,-74L415,-4Z"/><path fill="#f35b30" stroke="#f35b30" stroke-width="1.51" d="M422,189L449,-74L427,103Z"/><path fill="#f35827" stroke="#f35827" stroke-width="1.51" d="M-22,297L404,300L136,265Z"/><path fill="#ed5221" stroke="#ed5221" stroke-width="1.51" d="M300,250L404,300L422,189Z"/></svg>